<?xml version="1.0"?>
<svg width="1000" height="1000" xmlns="http://www.w3.org/2000/svg" xmlns:svg="http://www.w3.org/2000/svg" xmlns:xlink="http://www.w3.org/1999/xlink">
 <defs>
  <circle cx="500" cy="500" fill="blue" id="Circ1" r="500" stroke="black" stroke-width="3"/>
  <circle cx="500" cy="500" fill="#99ff99" id="Circ2" r="490" stroke="black" stroke-width="2"/>
  <circle cx="500" cy="500" fill="yellow" id="Circ3" r="412" stroke="green" stroke-width="3"/>
  <circle cx="500" cy="500" fill="#8389f5" id="Circ4" r="350" stroke="black" stroke-width="2"/>
  <circle cx="500" cy="500" fill="#9bc899" id="Circ5" r="311" stroke="black" stroke-width="3"/>
  <circle cx="500" cy="500" fill="#ff9999" id="Circ6" r="270" stroke="black" stroke-width="2"/>
  <circle cx="500" cy="500" fill="yellow" id="Circ7" r="230" stroke="black" stroke-width="2"/>
  <circle cx="500" cy="500" fill="white" id="Circ8" r="190" stroke="black" stroke-width="2"/>
  <circle cx="500" cy="500" fill="blue" id="Circ9" r="150" stroke="black" stroke-width="2"/>
  <circle cx="500" cy="500" fill="#9bc899" id="Circ10" r="110" stroke="black" stroke-width="2"/>
  <circle cx="500" cy="500" fill="white" id="Circ11" r="42" stroke="black" stroke-width="2"/>
  <circle cx="500" cy="500" fill="white" id="CircCenter" r="5" stroke="black" stroke-width="4"/>
  <polygon fill="#FFFFFF" id="bt" points="500, 10 325, 200 675, 200" stroke="#000000" stroke-width="3"/>
  <polygon fill="#ff9999" id="ct" points="10, 500 110, 375 110, 625" stroke="#000000" stroke-width="3"/>
 </defs>

 <!-- zelena -->
 <!-- use xlink:href="#levelCirc"  
	fill="url(#gradient_3D_red)" / -->
 <g class="layer">
  <title>Layer 1</title>
  <use id="svg_1" xlink:href="#Circ1"/>
  <use id="svg_2" xlink:href="#Circ2"/>
  <use id="svg_3" xlink:href="#ct"/>
  <use id="svg_4" transform="rotate(60 500 500)" xlink:href="#ct"/>
  <use id="svg_5" transform="rotate(120 500 500)" xlink:href="#ct"/>
  <use id="svg_6" transform="rotate(180 500 500)" xlink:href="#ct"/>
  <use id="svg_7" transform="rotate(240 500 500)" xlink:href="#ct"/>
  <use id="svg_8" transform="rotate(300 500 500)" xlink:href="#ct"/>
  <use id="svg_9" xlink:href="#Circ3"/>
  <use id="svg_10" xlink:href="#bt"/>
  <use id="svg_11" transform="rotate(60 500 500)" xlink:href="#bt"/>
  <use id="svg_12" transform="rotate(120 500 500)" xlink:href="#bt"/>
  <use id="svg_13" transform="rotate(180 500 500)" xlink:href="#bt"/>
  <use id="svg_14" transform="rotate(240 500 500)" xlink:href="#bt"/>
  <use id="svg_15" transform="rotate(300 500 500)" xlink:href="#bt"/>
  <use id="svg_16" xlink:href="#Circ4"/>
  <use id="svg_17" xlink:href="#Circ5"/>
  <use id="svg_18" xlink:href="#Circ6"/>
  <use id="svg_19" xlink:href="#Circ7"/>
  <use id="svg_20" xlink:href="#Circ8"/>
  <use id="svg_21" xlink:href="#Circ9"/>
  <g fill="none" id="svg_22" stroke="#808080" stroke-width="2">
   <line id="svg_23" x1="0" x2="1000" y1="500" y2="500"/>
   <line id="svg_24" x1="500" x2="500" y1="0" y2="1000"/>
   <line id="svg_25" transform="rotate(30 500 500)" x1="0" x2="1000" y1="500" y2="500"/>
   <line id="svg_26" transform="rotate(-30 500 500)" x1="0" x2="1000" y1="500" y2="500"/>
   <line id="svg_27" transform="rotate(60 500 500)" x1="0" x2="1000" y1="500" y2="500"/>
   <line id="svg_28" transform="rotate(-60 500 500)" x1="0" x2="1000" y1="500" y2="500"/>
  </g>
  <use id="svg_29" xlink:href="#Circ10"/>
  <g fill="red" id="svg_30" stroke="black" stroke-width="2">
   <line id="svg_31" x1="500" x2="405" y1="390" y2="555"/>
   <line id="svg_32" transform="rotate(60 500 500)" x1="500" x2="405" y1="390" y2="555"/>
   <line id="svg_33" transform="rotate(-60 500 500)" x1="500" x2="405" y1="390" y2="555"/>
   <line id="svg_34" transform="rotate(120 500 500)" x1="500" x2="405" y1="390" y2="555"/>
   <line id="svg_35" transform="rotate(-120 500 500)" x1="500" x2="405" y1="390" y2="555"/>
   <line id="svg_36" transform="rotate(180 500 500)" x1="500" x2="405" y1="390" y2="555"/>
  </g>
  <use id="svg_37" xlink:href="#Circ11"/>
  <use id="svg_38" xlink:href="#CircCenter"/>
 </g>
</svg>