<?xml version="1.0" encoding="UTF-8" standalone="no"?>
<!-- Created with Inkscape (http://www.inkscape.org/) -->
<svg  width="800px" height="800px" version="1.1"
viewBox="0 0 1000 1000" 
xmlns="http://www.w3.org/2000/svg"
xmlns:xlink="http://www.w3.org/1999/xlink"> 
<defs>
 <circle id="Circ1" cx="500" cy="500" r="500" stroke="black" stroke-width="3" fill="blue" />
 <circle id="Circ2" cx="500" cy="500" r="490" stroke="black" stroke-width="2"  fill="#99ff99" />
 <circle id="Circ3" cx="500" cy="500" r="412" stroke="green" stroke-width="3"  fill="yellow" />
 <circle id="Circ4" cx="500" cy="500" r="350"  stroke="black" stroke-width="2"  fill="#8389f5" />
 <circle id="Circ5" cx="500" cy="500" r="311"  stroke="black" stroke-width="3"  fill="#9bc899" />
 <circle id="Circ6" cx="500" cy="500" r="270"  stroke="black" stroke-width="2"  fill="#ff9999" />
 <circle id="Circ7" cx="500" cy="500" r="230"  stroke="black" stroke-width="2"  fill="yellow" />
 <circle id="Circ8" cx="500" cy="500" r="190"  stroke="black" stroke-width="2"  fill="white" />

 <circle id="Circ9" cx="500" cy="500" r="150"  stroke="black" stroke-width="2"  fill="blue" />
 <circle id="Circ10" cx="500" cy="500" r="110"  stroke="black" stroke-width="2"  fill="#9bc899" />
 <circle id="Circ11" cx="500" cy="500" r="42"  stroke="black" stroke-width="2"  fill="white" />

 <circle id="CircCenter" cx="500" cy="500" r="5"  stroke="black" stroke-width="4"  fill="white" />

 <polygon id="bt" points="500, 10 325, 200 675, 200"
 style="fill:#FFFFFF; stroke:#000000;stroke-width:3"/> 
 <polygon id="ct" points="10, 500 110, 375 110, 625"
 style="fill:#ff9999; stroke:#000000;stroke-width:3"/> 

 
</defs>
<defs>
 <radialGradient id="gradient_3D" cx="20%" cy="20%" r="100%" fx="30%" fy="30%">
   <stop stop-color="white" offset="0"/>
   <stop stop-color="#666" offset="50%"/>
   <stop stop-color="black" offset="100%"/>
 </radialGradient>
 <radialGradient id="gradient_3D_red" cx="20%" cy="20%" r="100%" fx="30%" fy="30%">
   <stop stop-color="white" offset="0"/>
   <stop stop-color="red" offset="25%"/>
   <stop stop-color="rgb(192,0,0)" offset="50%"/>
   <stop stop-color="rgb(127,0,0)" offset="70%"/>
   <stop stop-color="rgb(64,0,0)" offset="85%"/>
   <stop stop-color="rgb(0,0,0)" offset="100%"/>
 </radialGradient>
</defs>

<use xlink:href="#Circ1" /> 
<use xlink:href="#Circ2" /> 

<use xlink:href="#ct" /> 
<use xlink:href="#ct" transform = "rotate(60 500 500)"/> 
<use xlink:href="#ct" transform = "rotate(120 500 500)"/> 
<use xlink:href="#ct" transform = "rotate(180 500 500)"/> 
<use xlink:href="#ct" transform = "rotate(240 500 500)"/> 
<use xlink:href="#ct" transform = "rotate(300 500 500)"/> 


<use xlink:href="#Circ3" /> 

<use xlink:href="#bt" /> 
<use xlink:href="#bt" transform = "rotate(60 500 500)"/> 
<use xlink:href="#bt" transform = "rotate(120 500 500)"/> 
<use xlink:href="#bt" transform = "rotate(180 500 500)"/> 
<use xlink:href="#bt" transform = "rotate(240 500 500)"/> 
<use xlink:href="#bt" transform = "rotate(300 500 500)"/> 




<use xlink:href="#Circ4" /> 
<use xlink:href="#Circ5" /> 
<use xlink:href="#Circ6" /> 
<use xlink:href="#Circ7" /> 
<use xlink:href="#Circ8" /> 

<use xlink:href="#Circ9" /> 


     <g fill="none" stroke="#808080" stroke-width="2">
         <line x1="0" y1="500"   x2="1000"   y2="500" />
         <line x1="500" y1="0"   x2="500"   y2="1000" />
         
         <line x1="0" y1="500"   x2="1000"   y2="500" transform = "rotate(30 500 500)"/>
         <line x1="0" y1="500"   x2="1000"   y2="500" transform = "rotate(-30 500 500)"/>
         <line x1="0" y1="500"   x2="1000"   y2="500" transform = "rotate(60 500 500)"/>
         <line x1="0" y1="500"   x2="1000"   y2="500" transform = "rotate(-60 500 500)"/>

     </g>

<use xlink:href="#Circ10" /> <!-- zelena -->



     <g fill="red" stroke="black" stroke-width="2">
         <line x1="500" y1="390"   x2="405"   y2="555" />
         <line x1="500" y1="390"   x2="405"   y2="555"  transform = "rotate(60 500 500)"/>
         <line x1="500" y1="390"   x2="405"   y2="555"  transform = "rotate(-60 500 500)"/>
         <line x1="500" y1="390"   x2="405"   y2="555"  transform = "rotate(120 500 500)"/>
         <line x1="500" y1="390"   x2="405"   y2="555"  transform = "rotate(-120 500 500)"/>
         <line x1="500" y1="390"   x2="405"   y2="555"  transform = "rotate(180 500 500)"/>

     </g>


<use xlink:href="#Circ11" /> 
<use xlink:href="#CircCenter" /> 



<!-- use xlink:href="#levelCirc"  
	fill="url(#gradient_3D_red)" / --> 

</svg>
